STARTFONT 2.1
COMMENT
COMMENT Converted from OpenType font "Infernalda.ttf" by "otf2bdf 3.0".
COMMENT
FONT -FreeType-Infernalda-Medium-R-Normal--17-120-100-100-P-52-ISO10646-1
SIZE 12 100 100
FONTBOUNDINGBOX 11 16 -1 -3
STARTPROPERTIES 19
FOUNDRY "FreeType"
FAMILY_NAME "Infernalda"
WEIGHT_NAME "Medium"
SLANT "R"
SETWIDTH_NAME "Normal"
ADD_STYLE_NAME ""
PIXEL_SIZE 17
POINT_SIZE 120
RESOLUTION_X 100
RESOLUTION_Y 100
SPACING "P"
AVERAGE_WIDTH 52
CHARSET_REGISTRY "ISO10646"
CHARSET_ENCODING "1"
FONT_ASCENT 12
FONT_DESCENT 3
COPYRIGHT "DanielNoronha"
_OTF_FONTFILE "Infernalda.ttf"
_OTF_PSNAME "Infernalda"
ENDPROPERTIES
CHARS 161
STARTCHAR 0020
ENCODING 32
SWIDTH 300 0
DWIDTH 5 0
BBX 0 0 0 0
BITMAP
ENDCHAR
STARTCHAR 0021
ENCODING 33
SWIDTH 180 0
DWIDTH 3 0
BBX 2 14 0 -1
BITMAP
80
C0
C0
C0
C0
C0
C0
C0
C0
40
80
C0
C0
40
ENDCHAR
STARTCHAR 0022
ENCODING 34
SWIDTH 360 0
DWIDTH 6 0
BBX 5 5 0 7
BITMAP
48
D8
D8
D8
90
ENDCHAR
STARTCHAR 0023
ENCODING 35
SWIDTH 540 0
DWIDTH 9 0
BBX 7 13 0 0
BITMAP
48
6C
6C
FE
FE
6C
6C
6C
6C
FE
6C
6C
24
ENDCHAR
STARTCHAR 0024
ENCODING 36
SWIDTH 360 0
DWIDTH 6 0
BBX 5 15 0 -2
BITMAP
28
78
F8
A8
E8
E0
60
30
38
A8
F8
F0
E0
A0
80
ENDCHAR
STARTCHAR 0025
ENCODING 37
SWIDTH 540 0
DWIDTH 9 0
BBX 7 15 0 -2
BITMAP
02
46
E6
AC
EC
EC
58
18
30
34
6E
6A
CE
C4
80
ENDCHAR
STARTCHAR 0026
ENCODING 38
SWIDTH 600 0
DWIDTH 10 0
BBX 9 13 0 0
BITMAP
2000
7000
D800
D800
D800
5000
7200
7E00
DC00
D800
DC00
7600
2380
ENDCHAR
STARTCHAR 0027
ENCODING 39
SWIDTH 180 0
DWIDTH 3 0
BBX 2 5 0 7
BITMAP
40
C0
C0
C0
80
ENDCHAR
STARTCHAR 0028
ENCODING 40
SWIDTH 240 0
DWIDTH 4 0
BBX 3 13 0 0
BITMAP
20
40
C0
C0
C0
C0
C0
C0
C0
C0
C0
40
20
ENDCHAR
STARTCHAR 0029
ENCODING 41
SWIDTH 240 0
DWIDTH 4 0
BBX 3 13 0 0
BITMAP
80
40
60
60
60
60
60
60
60
60
60
40
80
ENDCHAR
STARTCHAR 002A
ENCODING 42
SWIDTH 360 0
DWIDTH 6 0
BBX 5 8 0 5
BITMAP
20
A8
70
F8
F8
70
A8
20
ENDCHAR
STARTCHAR 002B
ENCODING 43
SWIDTH 360 0
DWIDTH 6 0
BBX 5 8 0 1
BITMAP
20
20
20
20
F8
20
20
20
ENDCHAR
STARTCHAR 002C
ENCODING 44
SWIDTH 180 0
DWIDTH 3 0
BBX 3 4 -1 -2
BITMAP
20
60
60
C0
ENDCHAR
STARTCHAR 002D
ENCODING 45
SWIDTH 360 0
DWIDTH 6 0
BBX 5 1 0 4
BITMAP
F8
ENDCHAR
STARTCHAR 002E
ENCODING 46
SWIDTH 180 0
DWIDTH 3 0
BBX 2 4 0 -1
BITMAP
80
C0
C0
40
ENDCHAR
STARTCHAR 002F
ENCODING 47
SWIDTH 540 0
DWIDTH 9 0
BBX 7 15 0 -2
BITMAP
02
06
06
0C
0C
0C
18
18
30
30
60
60
C0
C0
80
ENDCHAR
STARTCHAR 0030
ENCODING 48
SWIDTH 360 0
DWIDTH 6 0
BBX 5 13 0 0
BITMAP
20
70
D8
D8
D8
D8
F8
F8
D8
D8
D8
70
20
ENDCHAR
STARTCHAR 0031
ENCODING 49
SWIDTH 300 0
DWIDTH 5 0
BBX 4 13 0 0
BITMAP
20
30
70
70
F0
F0
B0
30
30
30
30
30
10
ENDCHAR
STARTCHAR 0032
ENCODING 50
SWIDTH 360 0
DWIDTH 6 0
BBX 5 15 0 -2
BITMAP
80
F0
D8
98
B8
38
30
60
60
C8
D8
F8
98
08
08
ENDCHAR
STARTCHAR 0033
ENCODING 51
SWIDTH 360 0
DWIDTH 6 0
BBX 5 15 0 -2
BITMAP
80
F0
D8
98
98
18
30
18
18
98
D8
F0
C0
80
80
ENDCHAR
STARTCHAR 0034
ENCODING 52
SWIDTH 360 0
DWIDTH 6 0
BBX 5 13 0 0
BITMAP
88
D8
D8
D8
D8
D8
F8
F8
18
18
18
18
10
ENDCHAR
STARTCHAR 0035
ENCODING 53
SWIDTH 360 0
DWIDTH 6 0
BBX 5 13 0 0
BITMAP
08
F8
D8
C8
C8
C0
F0
18
18
98
D8
F0
80
ENDCHAR
STARTCHAR 0036
ENCODING 54
SWIDTH 360 0
DWIDTH 6 0
BBX 5 12 0 1
BITMAP
08
78
D8
C8
C8
C0
F0
D8
D8
D8
D8
70
ENDCHAR
STARTCHAR 0037
ENCODING 55
SWIDTH 360 0
DWIDTH 6 0
BBX 5 13 0 0
BITMAP
88
F8
D8
98
B8
30
30
60
60
C0
C0
80
80
ENDCHAR
STARTCHAR 0038
ENCODING 56
SWIDTH 360 0
DWIDTH 6 0
BBX 5 12 0 0
BITMAP
70
D8
D8
D8
D8
70
D8
D8
D8
D8
70
20
ENDCHAR
STARTCHAR 0039
ENCODING 57
SWIDTH 360 0
DWIDTH 6 0
BBX 5 12 0 0
BITMAP
70
D8
D8
D8
D8
D8
78
18
98
D8
F0
80
ENDCHAR
STARTCHAR 003A
ENCODING 58
SWIDTH 180 0
DWIDTH 3 0
BBX 2 8 0 -1
BITMAP
80
C0
C0
40
80
C0
C0
40
ENDCHAR
STARTCHAR 003B
ENCODING 59
SWIDTH 180 0
DWIDTH 3 0
BBX 3 9 -1 -2
BITMAP
40
60
60
20
00
20
60
60
C0
ENDCHAR
STARTCHAR 003C
ENCODING 60
SWIDTH 420 0
DWIDTH 7 0
BBX 6 12 0 0
BITMAP
04
0C
1C
3C
34
60
E0
60
34
1C
0C
04
ENDCHAR
STARTCHAR 003D
ENCODING 61
SWIDTH 360 0
DWIDTH 6 0
BBX 5 4 0 3
BITMAP
F8
00
00
F8
ENDCHAR
STARTCHAR 003E
ENCODING 62
SWIDTH 420 0
DWIDTH 7 0
BBX 6 12 0 0
BITMAP
80
C0
E0
F0
B0
18
1C
18
B0
E0
C0
80
ENDCHAR
STARTCHAR 003F
ENCODING 63
SWIDTH 360 0
DWIDTH 6 0
BBX 5 14 0 -1
BITMAP
80
F0
D8
98
B8
30
30
60
60
20
40
60
60
20
ENDCHAR
STARTCHAR 0040
ENCODING 64
SWIDTH 540 0
DWIDTH 9 0
BBX 7 14 0 -1
BITMAP
10
38
7C
44
DE
9E
B6
B6
B4
9A
44
7C
38
10
ENDCHAR
STARTCHAR 0041
ENCODING 65
SWIDTH 360 0
DWIDTH 6 0
BBX 5 13 0 0
BITMAP
20
70
70
D8
D8
D8
F8
F8
D8
D8
D8
D8
88
ENDCHAR
STARTCHAR 0042
ENCODING 66
SWIDTH 360 0
DWIDTH 6 0
BBX 5 15 0 -2
BITMAP
80
F0
D8
D8
D8
D8
D8
F0
D8
D8
D8
D8
F0
80
80
ENDCHAR
STARTCHAR 0043
ENCODING 67
SWIDTH 360 0
DWIDTH 6 0
BBX 5 15 0 -2
BITMAP
08
78
D8
C8
C8
C0
C0
C0
C0
C8
D8
78
18
08
08
ENDCHAR
STARTCHAR 0044
ENCODING 68
SWIDTH 360 0
DWIDTH 6 0
BBX 5 13 0 0
BITMAP
80
F0
D8
D8
D8
D8
D8
D8
D8
D8
D8
F0
80
ENDCHAR
STARTCHAR 0045
ENCODING 69
SWIDTH 360 0
DWIDTH 6 0
BBX 5 15 0 -2
BITMAP
88
F8
D8
C8
D8
D0
F0
F0
D0
C8
D8
F8
98
08
08
ENDCHAR
STARTCHAR 0046
ENCODING 70
SWIDTH 360 0
DWIDTH 6 0
BBX 5 13 0 0
BITMAP
88
F8
D8
C8
D8
D0
F0
F0
D0
C0
C0
C0
80
ENDCHAR
STARTCHAR 0047
ENCODING 71
SWIDTH 360 0
DWIDTH 6 0
BBX 5 15 0 -2
BITMAP
08
78
D8
C8
C8
C0
C8
D8
D8
D8
F8
78
18
08
08
ENDCHAR
STARTCHAR 0048
ENCODING 72
SWIDTH 360 0
DWIDTH 6 0
BBX 5 13 0 0
BITMAP
88
D8
D8
D8
D8
D8
F8
F8
F8
D8
D8
D8
88
ENDCHAR
STARTCHAR 0049
ENCODING 73
SWIDTH 180 0
DWIDTH 3 0
BBX 2 13 0 0
BITMAP
80
C0
C0
C0
C0
C0
C0
C0
C0
C0
C0
C0
40
ENDCHAR
STARTCHAR 004A
ENCODING 74
SWIDTH 300 0
DWIDTH 5 0
BBX 5 16 -1 -3
BITMAP
78
30
30
30
30
30
30
30
30
30
30
30
20
60
40
80
ENDCHAR
STARTCHAR 004B
ENCODING 75
SWIDTH 360 0
DWIDTH 6 0
BBX 5 13 0 0
BITMAP
88
D8
D8
D8
F8
F0
F0
F0
F0
D8
D8
D8
88
ENDCHAR
STARTCHAR 004C
ENCODING 76
SWIDTH 360 0
DWIDTH 6 0
BBX 5 15 0 -2
BITMAP
80
C0
C0
C0
C0
C0
C0
C0
C0
C8
D8
F8
98
08
08
ENDCHAR
STARTCHAR 004D
ENCODING 77
SWIDTH 540 0
DWIDTH 9 0
BBX 7 13 0 0
BITMAP
82
82
C6
C6
EE
EE
FE
FE
FE
D6
D6
C6
82
ENDCHAR
STARTCHAR 004E
ENCODING 78
SWIDTH 360 0
DWIDTH 6 0
BBX 5 13 0 0
BITMAP
88
98
D8
D8
D8
D8
F8
F8
F8
D8
D8
C8
88
ENDCHAR
STARTCHAR 004F
ENCODING 79
SWIDTH 360 0
DWIDTH 6 0
BBX 5 13 0 0
BITMAP
20
70
D8
D8
D8
D8
D8
D8
D8
D8
D8
70
20
ENDCHAR
STARTCHAR 0050
ENCODING 80
SWIDTH 360 0
DWIDTH 6 0
BBX 5 13 0 0
BITMAP
80
F0
D8
D8
D8
D8
D8
F0
E0
C0
C0
C0
40
ENDCHAR
STARTCHAR 0051
ENCODING 81
SWIDTH 360 0
DWIDTH 6 0
BBX 5 15 0 -2
BITMAP
20
70
D8
D8
D8
D8
D8
D8
D8
D8
F8
70
38
18
08
ENDCHAR
STARTCHAR 0052
ENCODING 82
SWIDTH 360 0
DWIDTH 6 0
BBX 5 15 0 -2
BITMAP
80
F0
D8
D8
D8
D8
D8
F0
E0
E8
F8
D8
58
08
08
ENDCHAR
STARTCHAR 0053
ENCODING 83
SWIDTH 360 0
DWIDTH 6 0
BBX 5 15 0 -2
BITMAP
08
78
D8
C8
E8
60
60
30
30
98
D8
F0
C0
80
80
ENDCHAR
STARTCHAR 0054
ENCODING 84
SWIDTH 600 0
DWIDTH 10 0
BBX 9 13 0 0
BITMAP
8180
FF80
DB80
9980
9980
1800
1800
1800
1800
1800
1800
1800
0800
ENDCHAR
STARTCHAR 0055
ENCODING 85
SWIDTH 360 0
DWIDTH 6 0
BBX 5 12 0 1
BITMAP
50
D8
D8
D8
D8
D8
D8
D8
D8
D8
F8
70
ENDCHAR
STARTCHAR 0056
ENCODING 86
SWIDTH 360 0
DWIDTH 6 0
BBX 5 13 0 0
BITMAP
88
D8
D8
D8
D8
D8
D8
D8
D8
D8
F8
70
20
ENDCHAR
STARTCHAR 0057
ENCODING 87
SWIDTH 540 0
DWIDTH 9 0
BBX 7 13 0 0
BITMAP
82
C6
D6
D6
FE
FE
FE
FE
EE
C6
C6
82
82
ENDCHAR
STARTCHAR 0058
ENCODING 88
SWIDTH 360 0
DWIDTH 6 0
BBX 5 13 0 0
BITMAP
88
D8
D8
D8
F8
70
70
70
70
D8
D8
D8
88
ENDCHAR
STARTCHAR 0059
ENCODING 89
SWIDTH 420 0
DWIDTH 7 0
BBX 6 13 0 0
BITMAP
84
CC
CC
CC
CC
CC
78
78
78
30
30
30
20
ENDCHAR
STARTCHAR 005A
ENCODING 90
SWIDTH 360 0
DWIDTH 6 0
BBX 5 15 0 -2
BITMAP
88
F8
D8
98
B8
30
30
60
60
C8
D8
F8
98
08
08
ENDCHAR
STARTCHAR 005B
ENCODING 91
SWIDTH 300 0
DWIDTH 5 0
BBX 4 13 0 0
BITMAP
10
F0
F0
D0
D0
C0
C0
C0
C0
D0
F0
F0
10
ENDCHAR
STARTCHAR 005C
ENCODING 92
SWIDTH 540 0
DWIDTH 9 0
BBX 7 15 0 -2
BITMAP
80
C0
C0
60
60
60
30
30
18
18
0C
0C
06
06
02
ENDCHAR
STARTCHAR 005D
ENCODING 93
SWIDTH 300 0
DWIDTH 5 0
BBX 4 13 0 0
BITMAP
80
F0
F0
B0
B0
30
30
30
30
B0
F0
F0
80
ENDCHAR
STARTCHAR 005E
ENCODING 94
SWIDTH 360 0
DWIDTH 6 0
BBX 5 3 0 10
BITMAP
20
70
D8
ENDCHAR
STARTCHAR 005F
ENCODING 95
SWIDTH 360 0
DWIDTH 6 0
BBX 5 1 0 0
BITMAP
F8
ENDCHAR
STARTCHAR 0060
ENCODING 96
SWIDTH 180 0
DWIDTH 3 0
BBX 2 4 0 8
BITMAP
80
C0
40
40
ENDCHAR
STARTCHAR 0061
ENCODING 97
SWIDTH 360 0
DWIDTH 6 0
BBX 5 9 0 0
BITMAP
08
08
78
D8
D8
D8
D8
78
28
ENDCHAR
STARTCHAR 0062
ENCODING 98
SWIDTH 360 0
DWIDTH 6 0
BBX 5 11 0 0
BITMAP
80
80
C0
C0
F0
D8
D8
D8
D8
F0
80
ENDCHAR
STARTCHAR 0063
ENCODING 99
SWIDTH 360 0
DWIDTH 6 0
BBX 5 11 0 -1
BITMAP
08
18
18
78
C8
C0
C0
C8
78
18
08
ENDCHAR
STARTCHAR 0064
ENCODING 100
SWIDTH 360 0
DWIDTH 6 0
BBX 5 11 0 0
BITMAP
08
08
18
18
78
D8
D8
D8
D8
78
08
ENDCHAR
STARTCHAR 0065
ENCODING 101
SWIDTH 360 0
DWIDTH 6 0
BBX 5 8 0 -1
BITMAP
70
D8
D8
F0
C8
78
18
08
ENDCHAR
STARTCHAR 0066
ENCODING 102
SWIDTH 360 0
DWIDTH 6 0
BBX 5 13 0 -2
BITMAP
08
78
F8
D8
C8
C8
E0
C0
C0
C0
C0
80
80
ENDCHAR
STARTCHAR 0067
ENCODING 103
SWIDTH 360 0
DWIDTH 6 0
BBX 5 12 0 -3
BITMAP
08
08
78
D8
D8
D8
D8
78
98
D0
E0
80
ENDCHAR
STARTCHAR 0068
ENCODING 104
SWIDTH 360 0
DWIDTH 6 0
BBX 5 11 0 0
BITMAP
80
80
C0
C0
F0
D8
D8
D8
D8
D8
88
ENDCHAR
STARTCHAR 0069
ENCODING 105
SWIDTH 180 0
DWIDTH 3 0
BBX 2 12 0 0
BITMAP
C0
C0
00
80
80
C0
C0
C0
C0
C0
C0
40
ENDCHAR
STARTCHAR 006A
ENCODING 106
SWIDTH 300 0
DWIDTH 5 0
BBX 4 14 0 -3
BITMAP
20
30
30
30
30
30
30
30
30
30
A0
E0
C0
80
ENDCHAR
STARTCHAR 006B
ENCODING 107
SWIDTH 360 0
DWIDTH 6 0
BBX 5 12 0 -1
BITMAP
88
88
D8
D8
F8
E8
C0
E8
F8
D8
88
88
ENDCHAR
STARTCHAR 006C
ENCODING 108
SWIDTH 180 0
DWIDTH 3 0
BBX 2 11 0 0
BITMAP
80
C0
C0
C0
C0
C0
C0
C0
C0
C0
40
ENDCHAR
STARTCHAR 006D
ENCODING 109
SWIDTH 600 0
DWIDTH 10 0
BBX 9 9 0 0
BITMAP
8000
8000
FE00
DB80
DB80
DB80
DB80
DB80
8980
ENDCHAR
STARTCHAR 006E
ENCODING 110
SWIDTH 360 0
DWIDTH 6 0
BBX 5 9 0 0
BITMAP
80
80
F0
D8
D8
D8
D8
D8
88
ENDCHAR
STARTCHAR 006F
ENCODING 111
SWIDTH 360 0
DWIDTH 6 0
BBX 5 9 0 0
BITMAP
20
20
70
D8
D8
D8
D8
70
20
ENDCHAR
STARTCHAR 0070
ENCODING 112
SWIDTH 360 0
DWIDTH 6 0
BBX 5 11 0 -2
BITMAP
80
80
F0
D8
D8
D8
D8
F0
C0
80
80
ENDCHAR
STARTCHAR 0071
ENCODING 113
SWIDTH 360 0
DWIDTH 6 0
BBX 5 11 0 -2
BITMAP
08
08
78
D8
D8
D8
D8
78
18
08
08
ENDCHAR
STARTCHAR 0072
ENCODING 114
SWIDTH 360 0
DWIDTH 6 0
BBX 5 9 0 0
BITMAP
88
88
F8
D8
C8
C8
C0
C0
40
ENDCHAR
STARTCHAR 0073
ENCODING 115
SWIDTH 360 0
DWIDTH 6 0
BBX 5 11 0 -1
BITMAP
08
18
18
78
C8
E0
38
98
F0
C0
80
ENDCHAR
STARTCHAR 0074
ENCODING 116
SWIDTH 360 0
DWIDTH 6 0
BBX 5 12 0 -1
BITMAP
80
C0
C0
C0
C0
C0
E0
C8
C8
D8
78
08
ENDCHAR
STARTCHAR 0075
ENCODING 117
SWIDTH 360 0
DWIDTH 6 0
BBX 5 8 0 1
BITMAP
50
50
D8
D8
D8
D8
D8
70
ENDCHAR
STARTCHAR 0076
ENCODING 118
SWIDTH 360 0
DWIDTH 6 0
BBX 5 9 0 0
BITMAP
88
88
D8
D8
D8
D8
D8
70
20
ENDCHAR
STARTCHAR 0077
ENCODING 119
SWIDTH 600 0
DWIDTH 10 0
BBX 9 9 0 0
BITMAP
4980
4980
DB80
DB80
DB80
DB80
DB80
7E00
2400
ENDCHAR
STARTCHAR 0078
ENCODING 120
SWIDTH 360 0
DWIDTH 6 0
BBX 5 9 0 0
BITMAP
88
88
D8
D8
70
70
D8
D8
88
ENDCHAR
STARTCHAR 0079
ENCODING 121
SWIDTH 360 0
DWIDTH 6 0
BBX 5 12 0 -3
BITMAP
88
88
D8
D8
D8
D8
F8
70
70
20
20
20
ENDCHAR
STARTCHAR 007A
ENCODING 122
SWIDTH 420 0
DWIDTH 7 0
BBX 6 11 0 -1
BITMAP
80
C0
C0
FC
9C
38
70
E4
FC
0C
04
ENDCHAR
STARTCHAR 007B
ENCODING 123
SWIDTH 300 0
DWIDTH 5 0
BBX 4 13 0 0
BITMAP
10
20
60
60
60
40
C0
40
60
60
60
20
10
ENDCHAR
STARTCHAR 007D
ENCODING 125
SWIDTH 300 0
DWIDTH 5 0
BBX 4 13 0 0
BITMAP
80
40
60
60
60
20
30
20
60
60
60
40
80
ENDCHAR
STARTCHAR 007E
ENCODING 126
SWIDTH 360 0
DWIDTH 6 0
BBX 5 4 0 8
BITMAP
48
B8
10
10
ENDCHAR
STARTCHAR 00A0
ENCODING 160
SWIDTH 300 0
DWIDTH 5 0
BBX 0 0 0 0
BITMAP
ENDCHAR
STARTCHAR 00A1
ENCODING 161
SWIDTH 180 0
DWIDTH 3 0
BBX 2 14 0 -1
BITMAP
40
C0
C0
80
C0
40
C0
C0
C0
C0
C0
C0
C0
80
ENDCHAR
STARTCHAR 00A8
ENCODING 168
SWIDTH 300 0
DWIDTH 5 0
BBX 3 3 1 8
BITMAP
A0
A0
A0
ENDCHAR
STARTCHAR 00A9
ENCODING 169
SWIDTH 540 0
DWIDTH 9 0
BBX 7 14 0 -1
BITMAP
10
38
7C
44
DE
9A
AA
A2
AA
9A
44
7C
38
10
ENDCHAR
STARTCHAR 00AA
ENCODING 170
SWIDTH 240 0
DWIDTH 4 0
BBX 3 6 0 6
BITMAP
60
E0
A0
E0
E0
60
ENDCHAR
STARTCHAR 00AE
ENCODING 174
SWIDTH 540 0
DWIDTH 9 0
BBX 7 14 0 -1
BITMAP
10
38
7C
44
EE
AA
BA
AA
A2
A2
44
7C
38
10
ENDCHAR
STARTCHAR 00B0
ENCODING 176
SWIDTH 240 0
DWIDTH 4 0
BBX 3 6 0 6
BITMAP
40
E0
A0
E0
E0
40
ENDCHAR
STARTCHAR 00B1
ENCODING 177
SWIDTH 600 0
DWIDTH 10 0
BBX 8 10 1 1
BITMAP
10
10
10
10
FF
10
10
10
00
FF
ENDCHAR
STARTCHAR 00B2
ENCODING 178
SWIDTH 240 0
DWIDTH 4 0
BBX 3 8 0 5
BITMAP
40
E0
A0
60
60
40
A0
E0
ENDCHAR
STARTCHAR 00B3
ENCODING 179
SWIDTH 240 0
DWIDTH 4 0
BBX 3 8 0 5
BITMAP
40
E0
A0
60
E0
A0
E0
40
ENDCHAR
STARTCHAR 00B4
ENCODING 180
SWIDTH 240 0
DWIDTH 4 0
BBX 2 4 1 8
BITMAP
40
C0
80
80
ENDCHAR
STARTCHAR 00B9
ENCODING 185
SWIDTH 180 0
DWIDTH 3 0
BBX 2 8 0 5
BITMAP
40
C0
C0
40
40
40
40
40
ENDCHAR
STARTCHAR 00BA
ENCODING 186
SWIDTH 240 0
DWIDTH 4 0
BBX 3 8 0 5
BITMAP
40
E0
A0
A0
A0
A0
E0
40
ENDCHAR
STARTCHAR 00BF
ENCODING 191
SWIDTH 360 0
DWIDTH 6 0
BBX 5 14 0 -1
BITMAP
10
30
30
20
30
10
30
30
60
60
C8
D8
78
08
ENDCHAR
STARTCHAR 00C0
ENCODING 192
SWIDTH 360 0
DWIDTH 6 0
BBX 5 13 0 0
BITMAP
80
E0
70
70
F8
D8
D8
F8
F8
D8
D8
D8
88
ENDCHAR
STARTCHAR 00C1
ENCODING 193
SWIDTH 360 0
DWIDTH 6 0
BBX 5 13 0 0
BITMAP
08
38
70
70
F8
D8
D8
F8
F8
D8
D8
D8
88
ENDCHAR
STARTCHAR 00C2
ENCODING 194
SWIDTH 360 0
DWIDTH 6 0
BBX 5 13 0 0
BITMAP
20
70
F8
70
F8
D8
D8
F8
F8
D8
D8
D8
88
ENDCHAR
STARTCHAR 00C3
ENCODING 195
SWIDTH 360 0
DWIDTH 6 0
BBX 5 13 0 0
BITMAP
48
B8
70
70
F8
D8
D8
F8
F8
D8
D8
D8
88
ENDCHAR
STARTCHAR 00C4
ENCODING 196
SWIDTH 360 0
DWIDTH 6 0
BBX 5 13 0 0
BITMAP
50
20
70
70
F8
D8
D8
F8
F8
D8
D8
D8
88
ENDCHAR
STARTCHAR 00C6
ENCODING 198
SWIDTH 660 0
DWIDTH 11 0
BBX 10 15 0 -2
BITMAP
08C0
7FC0
7DC0
DCC0
DDC0
DD80
FF80
FF80
DD80
DCC0
DDC0
DFC0
89C0
00C0
00C0
ENDCHAR
STARTCHAR 00C7
ENCODING 199
SWIDTH 360 0
DWIDTH 6 0
BBX 5 15 0 -2
BITMAP
08
78
D8
C8
C8
C0
C0
C0
C0
C8
D8
78
38
68
48
ENDCHAR
STARTCHAR 00C8
ENCODING 200
SWIDTH 360 0
DWIDTH 6 0
BBX 5 15 0 -2
BITMAP
40
68
F8
C8
C8
C8
D0
F0
D0
C8
D8
F8
98
08
08
ENDCHAR
STARTCHAR 00C9
ENCODING 201
SWIDTH 360 0
DWIDTH 6 0
BBX 5 15 0 -2
BITMAP
10
B0
F8
C8
C8
C8
D0
F0
D0
C8
D8
F8
98
08
08
ENDCHAR
STARTCHAR 00CA
ENCODING 202
SWIDTH 360 0
DWIDTH 6 0
BBX 5 15 0 -2
BITMAP
20
70
F8
C8
C8
C8
D0
F0
D0
C8
D8
F8
98
08
08
ENDCHAR
STARTCHAR 00CB
ENCODING 203
SWIDTH 360 0
DWIDTH 6 0
BBX 5 15 0 -2
BITMAP
50
88
F8
C8
C8
C8
D0
F0
D0
C8
D8
F8
98
08
08
ENDCHAR
STARTCHAR 00CC
ENCODING 204
SWIDTH 180 0
DWIDTH 3 0
BBX 3 13 -1 0
BITMAP
80
C0
40
60
60
60
60
60
60
60
60
60
20
ENDCHAR
STARTCHAR 00CD
ENCODING 205
SWIDTH 240 0
DWIDTH 4 0
BBX 3 13 0 0
BITMAP
20
60
C0
C0
C0
C0
C0
C0
C0
C0
C0
C0
40
ENDCHAR
STARTCHAR 00CE
ENCODING 206
SWIDTH 180 0
DWIDTH 3 0
BBX 3 13 -1 0
BITMAP
40
E0
E0
60
60
60
60
60
60
60
60
60
20
ENDCHAR
STARTCHAR 00CF
ENCODING 207
SWIDTH 180 0
DWIDTH 3 0
BBX 3 13 -1 0
BITMAP
A0
00
40
60
60
60
60
60
60
60
60
60
20
ENDCHAR
STARTCHAR 00D1
ENCODING 209
SWIDTH 360 0
DWIDTH 6 0
BBX 5 13 0 0
BITMAP
48
B8
98
D8
D8
D8
F8
F8
F8
F8
D8
D8
88
ENDCHAR
STARTCHAR 00D2
ENCODING 210
SWIDTH 360 0
DWIDTH 6 0
BBX 5 13 0 0
BITMAP
80
E0
70
D8
D8
D8
D8
D8
D8
D8
D8
70
20
ENDCHAR
STARTCHAR 00D3
ENCODING 211
SWIDTH 360 0
DWIDTH 6 0
BBX 5 13 0 0
BITMAP
08
38
70
D8
D8
D8
D8
D8
D8
D8
D8
70
20
ENDCHAR
STARTCHAR 00D4
ENCODING 212
SWIDTH 360 0
DWIDTH 6 0
BBX 5 13 0 0
BITMAP
20
70
F8
50
D8
D8
D8
D8
D8
D8
D8
70
20
ENDCHAR
STARTCHAR 00D5
ENCODING 213
SWIDTH 360 0
DWIDTH 6 0
BBX 5 13 0 0
BITMAP
48
B8
70
D8
D8
D8
D8
D8
D8
D8
D8
70
20
ENDCHAR
STARTCHAR 00D6
ENCODING 214
SWIDTH 360 0
DWIDTH 6 0
BBX 5 13 0 0
BITMAP
50
20
70
D8
D8
D8
D8
D8
D8
D8
D8
70
20
ENDCHAR
STARTCHAR 00D9
ENCODING 217
SWIDTH 360 0
DWIDTH 6 0
BBX 5 12 0 1
BITMAP
40
60
70
D8
D8
D8
D8
D8
D8
D8
F8
70
ENDCHAR
STARTCHAR 00DA
ENCODING 218
SWIDTH 360 0
DWIDTH 6 0
BBX 5 10 0 1
BITMAP
50
D8
D8
D8
D8
D8
D8
D8
F8
70
ENDCHAR
STARTCHAR 00DB
ENCODING 219
SWIDTH 360 0
DWIDTH 6 0
BBX 5 12 0 1
BITMAP
20
70
D8
D8
D8
D8
D8
D8
D8
D8
F8
70
ENDCHAR
STARTCHAR 00DC
ENCODING 220
SWIDTH 360 0
DWIDTH 6 0
BBX 5 12 0 1
BITMAP
50
00
50
D8
D8
D8
D8
D8
D8
D8
F8
70
ENDCHAR
STARTCHAR 00DD
ENCODING 221
SWIDTH 420 0
DWIDTH 7 0
BBX 6 13 0 0
BITMAP
10
B4
EC
CC
CC
CC
CC
78
78
78
30
30
20
ENDCHAR
STARTCHAR 00E0
ENCODING 224
SWIDTH 360 0
DWIDTH 6 0
BBX 5 12 0 0
BITMAP
40
60
20
28
08
78
D8
D8
D8
D8
78
28
ENDCHAR
STARTCHAR 00E1
ENCODING 225
SWIDTH 360 0
DWIDTH 6 0
BBX 5 12 0 0
BITMAP
10
30
20
28
08
78
D8
D8
D8
D8
78
28
ENDCHAR
STARTCHAR 00E2
ENCODING 226
SWIDTH 360 0
DWIDTH 6 0
BBX 5 13 0 0
BITMAP
20
70
D8
00
08
08
78
D8
D8
D8
D8
78
28
ENDCHAR
STARTCHAR 00E3
ENCODING 227
SWIDTH 360 0
DWIDTH 6 0
BBX 5 12 0 0
BITMAP
48
B8
10
18
08
78
D8
D8
D8
D8
78
28
ENDCHAR
STARTCHAR 00E4
ENCODING 228
SWIDTH 360 0
DWIDTH 6 0
BBX 5 12 0 0
BITMAP
50
50
00
08
08
78
D8
D8
D8
D8
78
28
ENDCHAR
STARTCHAR 00E6
ENCODING 230
SWIDTH 660 0
DWIDTH 11 0
BBX 10 10 0 -1
BITMAP
0800
0800
7F80
DDC0
DDC0
DF80
DCC0
7FC0
21C0
00C0
ENDCHAR
STARTCHAR 00E7
ENCODING 231
SWIDTH 360 0
DWIDTH 6 0
BBX 5 12 0 -2
BITMAP
08
18
18
78
C8
C0
C0
C8
78
38
68
40
ENDCHAR
STARTCHAR 00E8
ENCODING 232
SWIDTH 360 0
DWIDTH 6 0
BBX 5 13 0 -1
BITMAP
40
60
20
20
00
70
D8
D8
F0
C8
78
18
08
ENDCHAR
STARTCHAR 00E9
ENCODING 233
SWIDTH 360 0
DWIDTH 6 0
BBX 5 13 0 -1
BITMAP
10
30
20
20
00
70
D8
D8
F0
C8
78
18
08
ENDCHAR
STARTCHAR 00EA
ENCODING 234
SWIDTH 360 0
DWIDTH 6 0
BBX 5 14 0 -1
BITMAP
20
70
D8
00
00
00
70
D8
D8
F0
C8
78
18
08
ENDCHAR
STARTCHAR 00EB
ENCODING 235
SWIDTH 360 0
DWIDTH 6 0
BBX 5 13 0 -1
BITMAP
50
50
00
00
00
70
D8
D8
F0
C8
78
18
08
ENDCHAR
STARTCHAR 00EC
ENCODING 236
SWIDTH 180 0
DWIDTH 3 0
BBX 2 13 0 0
BITMAP
80
C0
40
00
80
80
C0
C0
C0
C0
C0
C0
40
ENDCHAR
STARTCHAR 00ED
ENCODING 237
SWIDTH 180 0
DWIDTH 3 0
BBX 2 13 0 0
BITMAP
40
C0
80
00
80
80
C0
C0
C0
C0
C0
C0
40
ENDCHAR
STARTCHAR 00EE
ENCODING 238
SWIDTH 180 0
DWIDTH 3 0
BBX 3 13 -1 0
BITMAP
40
E0
A0
00
40
40
60
60
60
60
60
60
20
ENDCHAR
STARTCHAR 00EF
ENCODING 239
SWIDTH 180 0
DWIDTH 3 0
BBX 3 12 -1 0
BITMAP
A0
A0
00
40
40
60
60
60
60
60
60
20
ENDCHAR
STARTCHAR 00F1
ENCODING 241
SWIDTH 360 0
DWIDTH 6 0
BBX 5 12 0 0
BITMAP
48
B8
10
90
80
F0
D8
D8
D8
D8
D8
88
ENDCHAR
STARTCHAR 00F2
ENCODING 242
SWIDTH 360 0
DWIDTH 6 0
BBX 5 13 0 0
BITMAP
40
60
20
00
20
20
70
D8
D8
D8
D8
70
20
ENDCHAR
STARTCHAR 00F3
ENCODING 243
SWIDTH 360 0
DWIDTH 6 0
BBX 5 13 0 0
BITMAP
10
30
20
00
20
20
70
D8
D8
D8
D8
70
20
ENDCHAR
STARTCHAR 00F4
ENCODING 244
SWIDTH 360 0
DWIDTH 6 0
BBX 5 13 0 0
BITMAP
20
70
D8
00
20
20
70
D8
D8
D8
D8
70
20
ENDCHAR
STARTCHAR 00F5
ENCODING 245
SWIDTH 360 0
DWIDTH 6 0
BBX 5 13 0 0
BITMAP
48
B8
10
00
20
20
70
D8
D8
D8
D8
70
20
ENDCHAR
STARTCHAR 00F6
ENCODING 246
SWIDTH 360 0
DWIDTH 6 0
BBX 5 12 0 0
BITMAP
50
50
00
20
20
70
D8
D8
D8
D8
70
20
ENDCHAR
STARTCHAR 00F7
ENCODING 247
SWIDTH 360 0
DWIDTH 6 0
BBX 5 8 0 1
BITMAP
20
20
20
00
F8
00
20
20
ENDCHAR
STARTCHAR 00F9
ENCODING 249
SWIDTH 360 0
DWIDTH 6 0
BBX 5 12 0 1
BITMAP
40
60
20
00
50
50
D8
D8
D8
D8
D8
70
ENDCHAR
STARTCHAR 00FA
ENCODING 250
SWIDTH 360 0
DWIDTH 6 0
BBX 5 12 0 1
BITMAP
10
30
20
00
50
50
D8
D8
D8
D8
D8
70
ENDCHAR
STARTCHAR 00FB
ENCODING 251
SWIDTH 360 0
DWIDTH 6 0
BBX 5 12 0 1
BITMAP
20
70
D8
00
50
50
D8
D8
D8
D8
D8
70
ENDCHAR
STARTCHAR 00FC
ENCODING 252
SWIDTH 360 0
DWIDTH 6 0
BBX 5 11 0 1
BITMAP
50
50
00
50
50
D8
D8
D8
D8
D8
70
ENDCHAR
STARTCHAR 00FD
ENCODING 253
SWIDTH 360 0
DWIDTH 6 0
BBX 5 15 0 -3
BITMAP
10
30
20
A8
88
D8
D8
D8
D8
F8
70
70
20
20
20
ENDCHAR
ENDFONT
